<svg width="80" height="64" viewBox="0 0 80 64" fill="none" xmlns="http://www.w3.org/2000/svg">
<g clip-path="url(#clip0_7_8429)">
<path d="M47.1059 43.7474C66.9051 27.472 78.549 8.96695 73.1132 2.41515C67.6774 -4.13665 47.2204 3.74586 27.4212 20.0212C7.62206 36.2966 -4.02177 54.8016 1.414 61.3534C6.84978 67.9052 27.3068 60.0227 47.1059 43.7474Z" fill="#D3A674"/>
<path d="M49.09 37.7863C35.3652 48.9863 29.5537 50.3401 24.2369 43.9401C17.189 35.4478 19.9092 30.5247 33.6341 19.2016C47.359 7.87857 61.8257 2.95549 66.1534 8.12472C70.4811 13.2939 62.6913 26.4632 49.09 37.7863Z" fill="#5186BC"/>
<path d="M57.7428 5.0491L67.7583 17.1106C68.0056 17.3568 67.6346 17.726 67.3873 17.603L50.4476 8.37218C50.2003 8.2491 49.8294 8.61833 50.0767 8.86449L62.5651 24.003C62.8124 24.2491 63.1833 24.0029 63.0597 23.7568L57.2482 5.29526C57.1246 5.0491 57.4955 4.80295 57.7428 5.0491Z" stroke="#002A50" stroke-width="0.2006" stroke-miterlimit="10"/>
<path d="M67.2682 17.726C67.1445 17.6029 67.1445 17.3567 67.2682 17.2337L67.8864 16.7414C68.01 16.6183 68.2573 16.6183 68.381 16.7414C68.5046 16.8644 68.5046 17.1106 68.381 17.2337L67.7627 17.726C67.6391 17.849 67.3918 17.849 67.2682 17.726Z" fill="#002A50"/>
<path d="M57.1252 5.53847C57.0016 5.41539 57.0016 5.16924 57.1252 5.04616L57.7434 4.55386C57.8671 4.43078 58.1144 4.43078 58.238 4.55386C58.3617 4.67693 58.3617 4.92309 58.238 5.04616L57.6198 5.53847C57.4961 5.66155 57.2489 5.66155 57.1252 5.53847Z" fill="#002A50"/>
<path d="M49.8319 8.49526C49.7082 8.37218 49.7082 8.12603 49.8319 8.00295L50.4501 7.51064C50.5738 7.38757 50.8211 7.38757 50.9447 7.51064C51.0683 7.63372 51.0683 7.87987 50.9447 8.00295L50.3265 8.61834C50.2028 8.74141 49.9555 8.74141 49.8319 8.49526Z" fill="#002A50"/>
<path d="M62.8149 24.2453C62.6913 24.1222 62.6913 23.876 62.8149 23.7529L63.4331 23.2606C63.5568 23.1376 63.8041 23.1376 63.9277 23.2606C64.0514 23.3837 64.0514 23.6299 63.9277 23.7529L63.3095 24.2453C63.1858 24.3683 62.9386 24.3683 62.8149 24.2453Z" fill="#002A50"/>
<path d="M17.4343 38.1558C17.5579 38.2789 17.5579 38.525 17.4343 38.6481L16.816 39.1404C16.6924 39.2635 16.4451 39.2635 16.3214 39.1404C16.1978 39.0173 16.1978 38.7712 16.3214 38.6481L16.9397 38.1558C17.0633 37.9097 17.3106 37.9097 17.4343 38.1558Z" fill="#002A50"/>
<path d="M27.5773 50.3384C27.7009 50.4615 27.7009 50.7077 27.5773 50.8307L26.959 51.323C26.8354 51.4461 26.5881 51.4461 26.4644 51.323C26.3408 51.2 26.3408 50.9538 26.4644 50.8307L27.0827 50.3384C27.2063 50.0923 27.4536 50.0923 27.5773 50.3384Z" fill="#002A50"/>
<path d="M34.8705 47.2624C34.9942 47.3854 34.9942 47.6316 34.8705 47.7547L34.2523 48.247C34.1287 48.37 33.8814 48.37 33.7577 48.247C33.6341 48.1239 33.6341 47.8777 33.7577 47.7547L34.376 47.2624C34.4996 47.0162 34.7469 47.1393 34.8705 47.2624Z" fill="#002A50"/>
<path d="M21.762 31.5106C21.8856 31.6337 21.8856 31.8799 21.762 32.0029L21.1437 32.4953C21.0201 32.6183 20.7728 32.6183 20.6491 32.4953C20.5255 32.3722 20.5255 32.126 20.6491 32.0029L21.2674 31.5106C21.391 31.3876 21.6383 31.3876 21.762 31.5106Z" fill="#002A50"/>
<path d="M1.362 61.2948C4.20589 64.7409 11.1302 64.2486 20.0328 60.6794C25.1023 54.8948 24.855 50.7101 20.0328 44.6794C16.3234 40.2486 12.3666 39.5101 5.56602 43.3255C0.24917 51.2025 -1.4819 57.8486 1.362 61.2948Z" fill="#D6A85C"/>
<path d="M26.9562 50.7068L16.9407 38.6452C16.6935 38.3991 17.0644 38.0299 17.3117 38.1529L34.2514 47.3837C34.4987 47.5068 34.8696 47.1375 34.6224 46.8914L22.0103 31.876C21.763 31.6299 21.3921 31.876 21.5157 32.1222L27.4508 50.4606C27.5744 50.7068 27.2035 50.9529 26.9562 50.7068Z" stroke="#002A50" stroke-width="0.2006" stroke-miterlimit="10"/>
<path d="M15.9515 42.2145C16.0752 42.3376 16.0752 42.5837 15.9515 42.7068L15.3333 43.1991C15.2096 43.3222 14.9624 43.3222 14.8387 43.1991C14.7151 43.076 14.7151 42.8299 14.8387 42.7068L15.4569 42.2145C15.5806 42.0914 15.8279 42.0914 15.9515 42.2145Z" fill="#002A50"/>
<path d="M22.7521 50.3375C22.8758 50.4606 22.8758 50.7068 22.7521 50.8299L22.1339 51.3222C22.0102 51.4452 21.763 51.4452 21.6393 51.3222C21.5157 51.1991 21.5157 50.9529 21.6393 50.8299L22.2575 50.3375C22.3812 50.2145 22.6285 50.2145 22.7521 50.3375Z" fill="#002A50"/>
<path d="M26.7089 50.4606L15.9516 42.7068C15.7043 42.5837 15.5806 42.8299 15.7043 42.953L22.0103 50.5837C22.1339 50.7068 22.3812 50.5837 22.2576 50.3376L17.0644 38.6453" stroke="#002A50" stroke-width="0.2159" stroke-miterlimit="10"/>
<path d="M57.8829 41.7388L16.7083 13.6773C16.09 13.185 15.8427 12.3234 16.3373 11.708C16.8319 11.0926 17.6975 10.8465 18.3157 11.3388L59.4903 39.4003C60.1086 39.8926 60.3559 40.7542 59.8613 41.3696C59.3667 41.985 58.5012 42.2311 57.8829 41.7388Z" fill="#426FA6"/>
<path d="M67.2801 56.1388L56.5228 48.8773C52.8134 46.4158 51.9478 41.3696 54.4208 37.8004C56.8937 34.1081 61.9633 33.2465 65.5491 35.7081L76.3064 42.9696C78.1611 44.2004 78.6557 46.6619 77.2956 48.5081L72.7206 55.1542C71.6078 56.8773 69.1348 57.3696 67.2801 56.1388Z" fill="#9DBBCE"/>
<path d="M17.5738 14.2926L16.7083 13.6773C16.09 13.185 15.8427 12.3234 16.3373 11.708C16.8319 11.0926 17.6975 10.8465 18.3157 11.3388L19.1812 11.9542C19.7995 12.4465 20.0468 13.308 19.5522 13.9234C19.0576 14.6619 18.192 14.785 17.5738 14.2926Z" fill="#B5C6D2"/>
<path d="M54.0938 35.8265L51.9498 34.3683L50.3453 36.7057L52.4893 38.1639L54.0938 35.8265Z" fill="#B5C6D2"/>
</g>
<defs>
<clipPath id="clip0_7_8429">
<rect width="80" height="64" fill="white"/>
</clipPath>
</defs>
</svg>
